<!DOCTYPE svg PUBLIC "-//W3C//DTD SVG 1.1//EN" "http://www.w3.org/Graphics/SVG/1.1/DTD/svg11.dtd">
<!-- Uploaded to: SVG Repo, www.svgrepo.com, Transformed by: SVG Repo Mixer Tools -->
<svg width="800px" height="800px" viewBox="-2.4 -2.4 28.80 28.80" fill="none" xmlns="http://www.w3.org/2000/svg">
<g id="SVGRepo_bgCarrier" stroke-width="0">
<rect x="-2.4" y="-2.4" width="28.80" height="28.80" rx="0" fill="#ffffff" strokewidth="0"/>
</g>
<g id="SVGRepo_tracerCarrier" stroke-linecap="round" stroke-linejoin="round"/>
<g id="SVGRepo_iconCarrier"> <path d="M5 5H19V19H16L16 8H5V5Z" fill="#000000"/> <path fill-rule="evenodd" clip-rule="evenodd" d="M10 19C12.7614 19 15 16.7614 15 14C15 11.2386 12.7614 9 10 9C7.23858 9 5 11.2386 5 14C5 16.7614 7.23858 19 10 19ZM10 16C11.1046 16 12 15.1046 12 14C12 12.8954 11.1046 12 10 12C8.89543 12 8 12.8954 8 14C8 15.1046 8.89543 16 10 16Z" fill="#000000"/> </g>
</svg>